# xmcd
#
# Track frame offsets:
#	150
#	18000
#	33825
#	49335
#	66525
#	84150
#	100425
#	119400
#	136050
#	153600
#	169125
#	182775
#
# Disc length: 2677 seconds
#
# Revision: 1
# Processed by: cddbd v1.5.2PL0 Copyright (c) Steve Scherf et al.
# Submitted via: audiograbber 1.83.01
#
DISCID=9c0a730c
DTITLE=Enderlin Chicks - All Kinds Of Beautiful
DYEAR=2013
DGENRE=Country-Pop
TTITLE0=All Kinds Of Beautiful
TTITLE1=Better Than I Do
TTITLE2=Be With You
TTITLE3=Love Ain't All I Need
TTITLE4=Dance In The Rain
TTITLE5=Every Time You Cry
TTITLE6=Letting You Go
TTITLE7=Makes The World Go Round
TTITLE8=I Think Of You
TTITLE9=What I Need
TTITLE10=Come On
TTITLE11=Dance Like Nobody's Watchin'
EXTD=
EXTT0=
EXTT1=
EXTT2=
EXTT3=
EXTT4=
EXTT5=
EXTT6=
EXTT7=
EXTT8=
EXTT9=
EXTT10=
EXTT11=
PLAYORDER=
